<svg id="Camada_1" data-name="Camada 1" xmlns="http://www.w3.org/2000/svg" viewBox="0 0 283.46 283.46"><defs><style>.cls-1{fill:#fff;}</style></defs><path class="cls-1" d="M80.47,282.27C52.62,281.05,28.91,271,13.52,246.19a75.19,75.19,0,0,1-11.64-38.4Q.75,148.17,1,88.53C1,75.18,2.72,61.85,7.85,49.24,17.82,24.71,36,9.41,61.64,4.36,75.81,1.56,90.55.85,105.05.72c32.39-.29,64.8-.15,97.18.81,25.75.76,48.38,9.38,64.45,30.93a73.06,73.06,0,0,1,14.95,42.21c.93,40.62.91,81.27.85,121.91,0,15.52-2.39,30.84-9.79,44.8-13,24.5-34.06,37.58-61.12,39.9C188.44,283.27,100.9,283.16,80.47,282.27Zm107.59-24.75c10.22-1,20.64-1.21,30.6-3.44,20.19-4.53,34.11-20.43,36.62-41a251.24,251.24,0,0,0,2.1-31.23c-.13-35.18-.28-70.37-1.36-105.53-.5-15.89-7.18-29.67-20.68-39.16-10.76-7.57-23.24-9.88-36-10.08-32.54-.51-65.09-.87-97.63-.65a184,184,0,0,0-35.48,3.3C47.4,33.61,34.7,45.43,30.15,64.32a128.3,128.3,0,0,0-3.51,29.21c-.14,37.4,0,74.81.87,112.2.34,14.74,5.61,28.17,17.32,38.27,10.47,9,23.07,12.32,36.33,12.66C101.31,257.19,185.13,257.8,188.06,257.52Z"/><path class="cls-1" d="M141.7,214.55c-40.12-.08-72.8-32.81-72.63-72.76a72.74,72.74,0,1,1,72.63,72.76Zm.22-25.68A47,47,0,0,0,189,141.74c0-25.91-21.28-46.83-47.46-46.75a46.94,46.94,0,1,0,.38,93.88Z"/><path class="cls-1" d="M234.25,66.38c0,9.42-7.84,17.3-17.07,17.16a17.08,17.08,0,0,1-16.67-17.08,16.87,16.87,0,1,1,33.74-.08Z"/></svg>