<svg id="Camada_1" data-name="Camada 1" xmlns="http://www.w3.org/2000/svg" viewBox="0 0 283.46 283.46"><defs><style>.cls-1{fill:#fff;}</style></defs><path class="cls-1" d="M0,225.68V53.38c1.45-.07,2.86-.19,4.27-.19,26.55,0,53.09-.08,79.63,0,12.81,0,25.18,2.06,36.25,9.23,20.86,13.49,21.77,43.88,11.52,58.18-3.57,5-9,8.66-13.5,12.87,3.14,1.95,7.31,4,10.83,6.82,12.76,10.32,16,24.57,14,39.79-2.56,19.91-13.14,34.68-32.57,41.28a85.26,85.26,0,0,1-25.53,4.24c-27.56.54-55.14.23-82.71.24C1.63,225.86,1.05,225.77,0,225.68Zm34.92-30.11c16.84,0,33.32.09,49.81-.1a25.67,25.67,0,0,0,8.54-2c9.73-3.65,14.38-13.14,12.89-25.83-1.11-9.56-7.59-16-19-16.89-12.6-1-25.29-.7-37.94-.93-4.67-.08-9.35,0-14.32,0ZM35,82.49v38.73c15.53,0,30.71.25,45.86-.15A37,37,0,0,0,94,117.72c7.32-3.14,9.84-9.78,8.54-20.25C101.69,91,97.29,85.7,90,85.17,71.84,83.82,53.62,83.34,35,82.49Z"/><path class="cls-1" d="M189.5,171.55c-1,17.39,11.05,30.7,27.65,31.33,7.3.28,14.5.08,20.73-4.38,2.13-1.52,4.59-3.18,5.7-5.39,2.11-4.22,5.27-4.73,9.39-4.63,9.27.22,18.55.07,28.33.07-1,7.44-4.44,13.26-8.68,18.7-11.44,14.66-27,21.38-45.08,22.78-19.86,1.54-38-3.14-53.6-15.93-10.87-8.9-16.05-21-18.05-34.39-2.25-15.11-1.87-30.26,3.12-45C167,111.35,188,96,213.6,94.92c16.56-.69,32.39,1.71,46,12.08s20.52,24.43,22.62,41c1,7.57.85,15.27,1.25,23.57Zm58.23-22.24c-.61-10.11-4.16-18.35-13.25-23-10.78-5.58-22-5.83-32.34.74-7.78,4.95-11.14,13-12.07,22.31Z"/><path class="cls-1" d="M255.48,82.46H181v-21h74.46Z"/></svg>